<svg id="Layer_1" data-name="Layer 1" xmlns="http://www.w3.org/2000/svg" viewBox="0 0 500 500"><defs><style>.cls-1{fill:#fff;}</style></defs><path class="cls-1" d="M448.79,99.37C436.18,69.47,414,51.71,381.94,46.42a75.79,75.79,0,0,0-12.3-.73H254.39c-1.45,0-2.91.08-4.37.13q-31.12-.07-62.25-.13c-19,0-38-.06-57.06,0-37.22.12-67.86,21.76-80.44,56.78-.21.59-.41,1.18-.61,1.76s-.35,1.08-.51,1.62-.34,1.13-.5,1.7c-.24.85-.46,1.71-.66,2.57q-.16.65-.3,1.29c-.1.43-.19.86-.28,1.29-.23,1.12-.44,2.24-.61,3.37a85.75,85.75,0,0,0-1,10.64c0,1.18-.06,2.36-.06,3.55q0,33.24,0,66.49,0,86.48,0,172.94c.06,40.51,27,73.94,66.3,82.83,2.38.54,5,.15,7.1,1.81h261c6.54-1.9,13.37-2.61,19.74-5.24,30.37-12.5,48.46-34.74,53.7-67.27.11-.66.16-1.31.79-1.72V120.71C452.67,113.55,451.68,106.23,448.79,99.37Zm-248.55,57q30.9,17.26,61.78,34.57l37.43,20.94c.6.33,1.18.69,1.56.92l-27.7,27.7-86.08-86.08A17.82,17.82,0,0,1,200.24,156.37Zm-28,172c-.06-.68,0-1.37,0-2.06q0-76.32,0-152.63A19.59,19.59,0,0,1,175.69,162l88.25,88.27-88,88A17.83,17.83,0,0,1,172.24,328.39ZM299.75,288Q250,315.8,200.21,343.62c-2,1.13-4.41,1.64-6.62,2.43h-4.88l-1.32-.44,86.15-86.15,27.62,27.63C300.78,287.33,300.28,287.66,299.75,288Zm40.74-23.08a51.77,51.77,0,0,1-6.24,3.78c-6.63,3.74-13.29,7.44-19.93,11.16-.79.44-1.38.88-2.27,0-9.82-9.88-19.69-19.72-29.7-29.74.5-.53.86-1,1.25-1.34,9.32-9.33,18.67-18.63,27.95-28a2.05,2.05,0,0,1,3-.43c7.7,4.4,15.49,8.63,23.18,13C349.91,240.27,351.34,256.56,340.49,264.87Z"/></svg>