<svg id="Layer_1" data-name="Layer 1" xmlns="http://www.w3.org/2000/svg" xmlns:xlink="http://www.w3.org/1999/xlink" viewBox="0 0 1080 1080"><defs><style>.cls-1{fill:url(#linear-gradient);}</style><linearGradient id="linear-gradient" x1="483.09" y1="540" x2="591.17" y2="540" gradientUnits="userSpaceOnUse"><stop offset="0" stop-color="#fff"/><stop offset="1" stop-color="#db5c4d"/></linearGradient></defs><polygon points="479.09 442.24 479.09 422.41 479.09 422.24 449.68 422.24 449.68 422.41 449.68 442.24 449.68 442.41 479.09 442.41 479.09 442.24"/><path d="M434.54,528.52q-.19-.6-.42-1.2L434,527c-.33-.88-.7-1.75-1.1-2.62-.28-.61-.61-1.26-1-2a36.73,36.73,0,0,0-16.68-15.84l-.39-.19a36.27,36.27,0,0,0-13.43-3.18c-.6,0-1.18-.05-1.75-.05a36.7,36.7,0,0,0-36.36,31.73c-.05.38-.1.77-.14,1.15v0c-.09.77-.15,1.55-.18,2.33,0,.3,0,.59,0,.88q0,.75,0,1.5c0,.29,0,.58,0,.88,0,.78.09,1.56.18,2.33,0,.39.09.78.14,1.17a36.7,36.7,0,0,0,36.36,31.73c.57,0,1.15,0,1.75-.05a36.27,36.27,0,0,0,13.43-3.18l.39-.19A36.73,36.73,0,0,0,431.9,557.6c.41-.76.74-1.41,1-2,.4-.87.77-1.74,1.1-2.62,0-.09.07-.18.1-.28.11-.31.23-.63.33-.95l.27-.83s0-.08,0-.12.07-.23.11-.35l.12-.34h42.87l0-.18h0q-.51-3.18-.7-6.28c0-.83-.08-1.65-.1-2.47s0-1.54,0-2.32.05-1.65.1-2.47q.19-3.11.7-6.28h0l0-.18H435C434.85,529.44,434.7,529,434.54,528.52Zm-20.13,11.57a14.76,14.76,0,0,1-29.5.58c0-.25,0-.51,0-.76a5.62,5.62,0,0,1,0-.58,14.76,14.76,0,0,1,29.5.58Z"/><path d="M318,411.34a36.55,36.55,0,0,0,18.31,4.9c.58,0,1.15,0,1.76,0A36.57,36.57,0,0,0,351.47,413l.39-.19c.49-.23,1-.5,1.46-.76l46.36,46.36,19.71,19.71.17.17H660.44l.17-.17,19.71-19.71,46.36-46.36c.49.26,1,.53,1.46.76l.39.19A36.57,36.57,0,0,0,742,416.2c.61,0,1.18,0,1.76,0A36.83,36.83,0,1,0,710.45,395c.27.61.6,1.26,1,2,.23.43.49.84.74,1.26l-59.89,59.89H427.68l-59.89-59.89c.25-.42.51-.83.74-1.26.42-.76.75-1.41,1-2a36.25,36.25,0,0,0-1.22-33.48A36.74,36.74,0,1,0,318,411.34Zm425.75-46.63a14.77,14.77,0,0,1,0,29.53,14.13,14.13,0,0,1-2.85-.28h0A14.72,14.72,0,0,1,729.68,384a14.41,14.41,0,0,1-.72-4.53A14.78,14.78,0,0,1,743.72,364.71Zm-407.44,0A14.78,14.78,0,0,1,351,379.47a14.41,14.41,0,0,1-.72,4.53A14.72,14.72,0,0,1,339.16,394h0a14.13,14.13,0,0,1-2.85.28,14.77,14.77,0,0,1,0-29.53Z"/><polygon points="449.68 637.76 449.68 657.59 449.68 657.76 479.09 657.76 479.09 657.59 479.09 637.76 479.09 637.59 449.68 637.59 449.68 637.76"/><polygon points="494.98 637.59 494.98 637.76 494.98 657.59 494.98 657.76 540 657.76 585.02 657.76 585.02 657.59 585.02 637.76 585.02 637.59 540 637.59 494.98 637.59"/><path d="M482.62,565.81H449.68V586H497l-.17-.17H497A63.16,63.16,0,0,1,482.62,565.81Z"/><path d="M449.68,494v20.17h32.94a63.16,63.16,0,0,1,14.33-20h-.17L497,494Z"/><polygon points="630.32 442.24 630.32 422.41 630.32 422.24 600.91 422.24 600.91 422.41 600.91 442.24 600.91 442.41 630.32 442.41 630.32 442.24"/><polygon points="585.02 442.41 585.02 442.24 585.02 422.41 585.02 422.24 540 422.24 494.98 422.24 494.98 422.41 494.98 442.24 494.98 442.41 540 442.41 585.02 442.41"/><path d="M597.38,514.19h32.94V494H583.05a1.37,1.37,0,0,1,.17.17h-.17A63.16,63.16,0,0,1,597.38,514.19Z"/><path d="M630.32,586V565.81H597.38a63.16,63.16,0,0,1-14.33,20h.17l-.17.17Z"/><polygon points="600.91 637.76 600.91 657.59 600.91 657.76 630.32 657.76 630.32 657.59 630.32 637.76 630.32 637.59 600.91 637.59 600.91 637.76"/><path d="M645.13,550.43c0,.12.08.24.11.35s0,.08,0,.12l.27.83c.1.32.22.64.33.95,0,.1.07.19.1.28.33.88.7,1.75,1.1,2.62.28.61.61,1.26,1,2a36.73,36.73,0,0,0,16.68,15.84l.39.19a36.27,36.27,0,0,0,13.43,3.18c.6,0,1.18.05,1.75.05a36.7,36.7,0,0,0,36.36-31.73c0-.39.1-.78.14-1.17.09-.77.15-1.55.18-2.33,0-.3,0-.59,0-.88q0-.75,0-1.5c0-.29,0-.58,0-.88,0-.78-.09-1.56-.18-2.33v0c0-.38-.09-.77-.14-1.15a36.7,36.7,0,0,0-36.36-31.73c-.57,0-1.15,0-1.75.05a36.27,36.27,0,0,0-13.43,3.18l-.39.19A36.73,36.73,0,0,0,648.1,522.4c-.41.76-.74,1.41-1,2-.4.87-.77,1.74-1.1,2.62l-.1.28q-.23.6-.42,1.2c-.16.46-.31.92-.45,1.39H602.14l0,.18h0q.51,3.18.7,6.28c0,.82.09,1.64.1,2.47s0,1.55,0,2.32-.05,1.64-.1,2.47q-.2,3.11-.7,6.28h0l0,.18H645Zm20.46-10.52a14.76,14.76,0,0,1,29.5-.58,5.62,5.62,0,0,1,0,.58c0,.25,0,.51,0,.76a14.76,14.76,0,0,1-29.5-.58Z"/><path d="M762,668.66a36.55,36.55,0,0,0-18.31-4.9c-.58,0-1.15,0-1.76,0A36.57,36.57,0,0,0,728.53,667l-.39.19c-.49.23-1,.5-1.46.76l-46.36-46.36-19.71-19.71-.17-.17H419.56l-.17.17-19.71,19.71-46.36,46.36c-.49-.26-1-.53-1.46-.76l-.39-.19A36.57,36.57,0,0,0,338,663.8c-.61,0-1.18,0-1.76,0A36.83,36.83,0,1,0,369.55,685c-.27-.61-.6-1.26-1-2-.23-.43-.49-.84-.74-1.26l59.89-59.89H652.32l59.89,59.89c-.25.42-.51.83-.74,1.26-.42.76-.75,1.41-1,2a36.25,36.25,0,0,0,1.22,33.48A36.74,36.74,0,1,0,762,668.66ZM336.28,715.29a14.77,14.77,0,0,1,0-29.53,14.13,14.13,0,0,1,2.85.28h0a14.72,14.72,0,0,1,11.16,10,14.41,14.41,0,0,1,.72,4.53A14.78,14.78,0,0,1,336.28,715.29Zm407.44,0A14.78,14.78,0,0,1,729,700.53a14.41,14.41,0,0,1,.72-4.53,14.72,14.72,0,0,1,11.16-10h0a14.13,14.13,0,0,1,2.85-.28,14.77,14.77,0,0,1,0,29.53Z"/><path class="cls-1" d="M513.61,586A52.58,52.58,0,0,0,540,593H540a52.84,52.84,0,0,0,52.38-45.84v0c.06-.48.12-.95.17-1.43s.1-.93.13-1.39c.06-.65.1-1.29.13-1.94,0-.32,0-.63,0-.95s0-.69,0-1v-.82c0-.34,0-.69,0-1s0-.63,0-.95c0-.65-.07-1.29-.13-1.94,0-.46-.08-.92-.13-1.39s-.11-.95-.17-1.43v0A52.84,52.84,0,0,0,540,487H540a52.84,52.84,0,0,0-52.38,45.84v0c-.06.48-.12.95-.17,1.43s-.09.93-.13,1.39c-.06.65-.1,1.29-.13,1.94,0,.32,0,.63,0,.95s0,.69,0,1v.82c0,.34,0,.69,0,1s0,.63,0,.95c0,.65.07,1.29.13,1.94,0,.46.08.92.13,1.39s.11.95.17,1.43v0A52.2,52.2,0,0,0,513.61,586Zm-6.56-46.75c0-.56,0-1.11.08-1.66A33,33,0,0,1,540,507.15H540a33,33,0,0,1,32.84,30.42c0,.55.07,1.1.08,1.66,0,.23,0,.46,0,.69s0,.57,0,.85c0,.56,0,1.11-.08,1.66A33,33,0,0,1,540,572.85H540a33,33,0,0,1-32.84-30.42c0-.55-.07-1.1-.08-1.66,0-.28,0-.57,0-.85S507,539.46,507.05,539.23Z"/><path class="cls-1" d="M528.67,542.91H539.9v15h6.45V522.12H521.8v35.76h6.87Zm0-14.66H539.9v8.84H528.67Z"/><rect class="cls-1" x="551.33" y="522.12" width="6.87" height="35.75"/></svg>