<svg id="Layer_1" data-name="Layer 1" xmlns="http://www.w3.org/2000/svg" xmlns:xlink="http://www.w3.org/1999/xlink" viewBox="0 0 1080 1080"><defs><style>.cls-1{fill:url(#linear-gradient);}.cls-2{fill:url(#linear-gradient-2);}</style><linearGradient id="linear-gradient" x1="378.09" y1="560.93" x2="702.11" y2="560.93" gradientUnits="userSpaceOnUse"><stop offset="0" stop-color="#fff"/><stop offset="1" stop-color="#db5c4d"/></linearGradient><linearGradient id="linear-gradient-2" x1="540.24" y1="466" x2="576.78" y2="466" xlink:href="#linear-gradient"/></defs><path d="M738.19,437.65c-.31-44.53-26.64-79.44-65.69-91.31A103.43,103.43,0,0,0,643.58,342c-34.46-.4-69.42-.6-103.93-.6s-69.26.2-103.29.6c-53.62.65-94.28,41.79-94.58,95.7-.42,73.95-.42,141.12,0,205.37.34,51.65,37.27,91.39,87.79,94.5,25,1.54,50.82,1.15,75.74.76h.17c11.27-.17,22.92-.35,34.49-.35h9.46v.51q11.24,0,22.46.06c23.09.07,46.88.15,70.23-.14,55.35-.71,95.75-41.21,96.07-96.32C738.65,567.46,738.64,500.6,738.19,437.65Zm-17.76,178h0c0,2.54,0,5.1,0,7.67,0,9.19-.21,18.51-1,27.77a77.61,77.61,0,0,1-14.62,39.15,72.51,72.51,0,0,1-9.22,10.28C681.91,713,663.68,720,644.2,720.13c-39.79.32-75.5.47-109.15.47-35.16,0-67.7-.17-99.47-.51a78.29,78.29,0,0,1-75.8-91.59v-64c0-9.85,0-19.66,0-29.48v-.12c-.05-31.5-.11-64.08.06-96.14.26-46.26,32.7-78.65,78.91-78.76,67.23-.18,135.42-.18,202.65,0,21.54.05,41.29,7.64,55.6,21.34s22.61,33.13,23.1,54.43c.51,22.81.38,45.94.26,68.3v.61l0,8h.15Z"/><path class="cls-1" d="M692.08,534q-7.55-7.12-15.1-14.31c-8.7-8.25-17.69-16.79-26.61-25.11-7.57-7.08-10.73-7-17.8.29C599.56,529,566.65,563.29,536,595.2c-1.35,1.41-2.68,3.08-4.23,5-.86,1.07-1.76,2.2-2.74,3.39l-6.66,8L515,604.25Q502.82,592,490.94,580l-.92-.93c-15-15.16-29.82-30.05-44.62-44.9-6.54-6.57-9.85-8-11.46-8s-5,1.43-11.8,8.19c-10.17,10.19-20.33,20.4-30.94,31.05l-13.11,13.16v25.5c11.84-11.89,23.83-23.87,36.33-36.37l20.92-20.93L442,554.2c2.3,2.53,4.54,5.06,6.77,7.57,4.74,5.36,9.22,10.42,14,15.28,11.36,11.6,23,23.16,34.21,34.33l.77.79q6.22,6.18,12.43,12.38c6.58,6.58,9.84,8,11.4,8s4.94-1.5,11.65-8.45c27.42-28.45,57.25-59.44,93.88-97.55,1.43-1.5,2.85-3.17,4.51-5.11.93-1.08,1.87-2.19,2.91-3.38l6.47-7.42,21.06,19.9c13.76,13,27,25.48,40.06,38V543.34l-2.43-2.25C696.88,538.49,694.46,536.27,692.08,534Z"/><path class="cls-2" d="M558.21,484.2h.29a18,18,0,0,0,18.27-17.74,18.61,18.61,0,0,0-18-18.66h-.32a17.24,17.24,0,0,0-8.13,2.1,19.35,19.35,0,0,0-4.27,3.11,18.56,18.56,0,0,0-5.82,12.89,17.73,17.73,0,0,0,5,12.77A18.2,18.2,0,0,0,558.21,484.2Z"/></svg>