<svg id="Layer_1" data-name="Layer 1" xmlns="http://www.w3.org/2000/svg" xmlns:xlink="http://www.w3.org/1999/xlink" viewBox="0 0 1080 1080"><defs><style>.cls-1{fill:url(#linear-gradient);}.cls-2{fill:url(#linear-gradient-2);}.cls-3{fill:url(#linear-gradient-3);}</style><linearGradient id="linear-gradient" x1="478.57" y1="589.55" x2="584.43" y2="589.55" gradientUnits="userSpaceOnUse"><stop offset="0" stop-color="#fff"/><stop offset="1" stop-color="#db5c4d"/></linearGradient><linearGradient id="linear-gradient-2" x1="523.7" y1="589.55" x2="545.3" y2="589.55" xlink:href="#linear-gradient"/><linearGradient id="linear-gradient-3" x1="659.23" y1="366.19" x2="706.91" y2="366.19" xlink:href="#linear-gradient"/></defs><path d="M617.83,361.14H374V751.9H689V432.32Zm5.86,34.14,31.92,31.93H623.69ZM669,731.9H394V381.14h209.7v66.07H669Z"/><rect x="421.21" y="471.88" width="49.41" height="20"/><rect x="486.51" y="471.88" width="89.98" height="20"/><rect x="592.38" y="471.88" width="49.41" height="20"/><rect x="421.21" y="507.77" width="220.58" height="20"/><path d="M488.5,543.66H421.21v20h53A63.36,63.36,0,0,1,488.5,543.66Z"/><path d="M588.84,563.66h52.95v-20H574.5A63.36,63.36,0,0,1,588.84,563.66Z"/><path d="M594.43,589.56a63.45,63.45,0,0,1-.8,10h48.16v-20H593.63A63.26,63.26,0,0,1,594.43,589.56Z"/><path d="M468.57,589.56a63.26,63.26,0,0,1,.8-10H421.21v20h48.16A63.45,63.45,0,0,1,468.57,589.56Z"/><path d="M574.5,635.45h67.29v-20H588.84A63.36,63.36,0,0,1,574.5,635.45Z"/><path d="M474.16,615.45h-53v20H488.5A63.36,63.36,0,0,1,474.16,615.45Z"/><rect x="421.21" y="651.34" width="49.41" height="20"/><rect x="592.38" y="687.23" width="49.41" height="20"/><path class="cls-1" d="M531.5,642.49a52.94,52.94,0,1,0-52.93-52.94A53,53,0,0,0,531.5,642.49Zm0-85.87a32.94,32.94,0,1,1-32.93,32.93A33,33,0,0,1,531.5,556.62Z"/><polygon class="cls-2" points="523.7 574.34 523.7 604.76 545.3 589.55 523.7 574.34"/><polygon points="470.62 687.23 421.21 687.23 421.21 707.23 470.62 707.23 486.51 707.23 576.49 707.23 576.49 687.23 486.51 687.23 470.62 687.23"/><polygon points="576.49 651.34 486.51 651.34 486.51 671.34 576.49 671.34 592.38 671.34 641.79 671.34 641.79 651.34 592.38 651.34 576.49 651.34"/><path class="cls-3" d="M706,358.62,671.72,328.1v16.11h0v17.44c-8.74-3.28-19.7,5.13-16.6,12.94,3.78,9.54,21.82,4.83,21.89-5.74h0V340.37l23.7,21.2v24.6c-8.74-3.29-19.7,5.13-16.61,12.94,3.79,9.54,21.82,4.83,21.9-5.74h0V358.62Z"/></svg>