<svg id="Layer_1" data-name="Layer 1" xmlns="http://www.w3.org/2000/svg" xmlns:xlink="http://www.w3.org/1999/xlink" viewBox="0 0 1080 1080"><defs><style>.cls-1{fill:url(#linear-gradient);}.cls-2{fill:url(#linear-gradient-2);}.cls-3{fill:url(#linear-gradient-3);}.cls-4{fill:url(#linear-gradient-4);}.cls-5{fill:url(#linear-gradient-5);}</style><linearGradient id="linear-gradient" x1="366.85" y1="651.72" x2="508.06" y2="651.72" gradientUnits="userSpaceOnUse"><stop offset="0" stop-color="#fff"/><stop offset="1" stop-color="#db5c4d"/></linearGradient><linearGradient id="linear-gradient-2" x1="567.48" y1="651.72" x2="708.69" y2="651.72" xlink:href="#linear-gradient"/><linearGradient id="linear-gradient-3" x1="411.59" y1="427.86" x2="660.54" y2="427.86" xlink:href="#linear-gradient"/><linearGradient id="linear-gradient-4" x1="411.58" y1="477.69" x2="660.54" y2="477.69" xlink:href="#linear-gradient"/><linearGradient id="linear-gradient-5" x1="411.61" y1="527.35" x2="660.52" y2="527.35" xlink:href="#linear-gradient"/></defs><path d="M745.29,573.89c0-19.39,0-39.59,0-61q0-23.46,0-46.92c0-14.1-5.11-26-15.17-35.45l0,0-.39-.35c-.32-.29-.62-.59-1-.88l-.09-.07a44.3,44.3,0,0,0-26.87-11.32h-.3l-1.31-.12v20.43l1.19.26c6.88,1.49,12.44,4.48,16.43,8.62a27.46,27.46,0,0,1,7,18.52c.08,42.51.06,126.9,0,168.81v.06c-7.66-17.24-13.69-41.15-44.8-57.54-3.71-2-4.61-4.19-4.61-7.57,0-72.68,0-146.16,0-226H404.59c0,32.59,0,64.12,0,95,0,139.86.19,131.78-.18,133.58-.55,2.18-1.91,3.69-4.39,5a80.08,80.08,0,0,0-28.91,25c-8.38,11.59-9.66,18.53-15.89,32.55v-.06c0-40.21,0-127.13,0-168.81a27.46,27.46,0,0,1,7-18.52c4-4.14,9.55-7.13,16.43-8.62l1.19-.26V417.75l-1.31.12h-.3a44.3,44.3,0,0,0-26.87,11.32l-.09.07c-.33.29-.63.59-.95.88l-.39.35,0,0C339.84,440,334.73,451.88,334.73,466q0,23.47,0,46.95c-.05,122.86-.12,114.43.4,118.39,1.59,13.34,4.9,22.43,16.52,28,6.08,2.92,2.93,10,11.05,27.68,20.47,46.39,79.22,64.37,122.85,36.14,28.36-18.35,33.21-41.52,39.59-61h29.74c2.17,6.63,1.43,4.43,3.23,10.28,13.5,53.93,73.54,79.58,121.42,54.49,25-12.39,39.17-34.41,44.77-62.19a8.35,8.35,0,0,1,4.07-5.37c12-5.78,15-14.87,16.53-28C745.45,627,745.29,628.74,745.29,573.89Zm-252,113.56c-11.47,17.21-31.46,28.65-54.63,28.65-53.06,0-86.38-66.8-44.75-109.47C400,600.36,404.28,598,409,595.09,468.34,562.62,530,632.4,493.24,687.45Zm62.65-46.06H524.11c-8.92-51.82-50.78-79.08-96.29-73.8l-2.49.29V363.75H654.67V567.88c-23.89-2.78-45,.87-65.14,16C569.86,598.64,560,617.61,555.89,641.39ZM600.17,702c-49.56-42.53-17.27-114.62,40.76-114.62,35.55,0,63.94,29.85,63.75,65C704.39,703.64,643.73,736.56,600.17,702Z"/><path class="cls-1" d="M439.24,617.35h-.17a33.56,33.56,0,0,0-4.38.29l-.11,0-.5.07-1.27.23-.4.08-.89.21-.63.15-.72.21-.73.21-1.48.5-1.42.55-.59.27-.87.39-.46.23c-.34.17-.68.34-1,.52l-.31.17a35.4,35.4,0,0,0-8,6.13,34.81,34.81,0,0,0-10,24.6,33.26,33.26,0,0,0,1,7.9q0,.15.09.33c.11.41.22.82.34,1.2.06.17.11.34.17.52.12.36.23.72.35,1.06l.22.57c.12.32.24.63.38,1l.25.56c.13.3.26.61.42.94l.26.51c.15.32.31.63.48,1l.24.43q.28.52.6,1l.16.26a36.4,36.4,0,0,0,5.31,6.69,33.34,33.34,0,0,0,21.77,9.94c.45,0,.89,0,1.26,0h.2a35.44,35.44,0,0,0,22.27-7.56l.36-.28c.26-.22.52-.43.77-.66l.56-.48.46-.44.32-.3.51-.48.53-.55.69-.73.48-.56.66-.76.46-.59.54-.69.58-.82.34-.49c.24-.36.48-.72.71-1.09l.2-.33a34.27,34.27,0,0,0,4.8-17.54,33.79,33.79,0,0,0-10-24.23A35.15,35.15,0,0,0,439.24,617.35Z"/><path class="cls-2" d="M664.67,627.58a35,35,0,0,0-8-6.12l-.31-.18-1-.53-.42-.22-.92-.41-.54-.24-1.43-.56-1.45-.5-.74-.21-.74-.21-.57-.14-1-.22-.46-.09-1.2-.22-.51-.07-.11,0a33.53,33.53,0,0,0-4.37-.29h-.17A35.15,35.15,0,0,0,616,627.52a33.79,33.79,0,0,0-10,24.23,34.26,34.26,0,0,0,4.79,17.53l.22.35c.21.35.43.69.66,1l.39.56.55.77.57.73.45.58.69.8.44.51.68.72.53.54.51.5.75.7.53.46.83.71.3.24a35.53,35.53,0,0,0,22.36,7.62h.13c.45,0,.89,0,1.33,0a33.32,33.32,0,0,0,21.76-9.94,36.43,36.43,0,0,0,5.31-6.68,2.26,2.26,0,0,1,.16-.26l.61-1.07.22-.39c.17-.32.33-.66.53-1.06l.23-.44.42-1,.24-.54c.13-.32.26-.65.4-1l.19-.49c.13-.36.24-.72.36-1.09.06-.16.11-.32.17-.5.12-.41.23-.81.34-1.22l.08-.3a32.87,32.87,0,0,0,1-7.92A34.81,34.81,0,0,0,664.67,627.58Z"/><polygon class="cls-3" points="600.48 437.83 600.59 437.83 600.59 417.89 600.48 417.89 479.52 417.89 479.42 417.89 479.42 437.83 479.52 437.83 600.48 437.83"/><polygon class="cls-4" points="479.45 467.72 479.41 467.72 479.41 487.66 479.45 487.66 600.55 487.66 600.59 487.66 600.59 467.72 600.55 467.72 479.45 467.72"/><polygon class="cls-5" points="479.52 517.38 479.42 517.38 479.42 537.33 479.52 537.33 600.48 537.33 600.58 537.33 600.58 517.38 600.48 517.38 479.52 517.38"/></svg>