<svg id="Layer_1" data-name="Layer 1" xmlns="http://www.w3.org/2000/svg" xmlns:xlink="http://www.w3.org/1999/xlink" viewBox="0 0 1080 1080"><defs><style>.cls-1{fill:url(#linear-gradient);}.cls-2{fill:url(#linear-gradient-2);}</style><linearGradient id="linear-gradient" x1="480.63" y1="381.71" x2="361.65" y2="381.71" gradientUnits="userSpaceOnUse"><stop offset="0" stop-color="#fff"/><stop offset="1" stop-color="#db5c4d"/></linearGradient><linearGradient id="linear-gradient-2" x1="480.63" y1="382.71" x2="361.65" y2="382.71" xlink:href="#linear-gradient"/></defs><path d="M650.92,369.72H493.3v20H636.79v66.06h65.32v284.7h-275V454.74h-20V760.48h315V440.9Zm5.87,66.06V403.86l31.91,31.92Z"/><rect x="454.31" y="480.45" width="49.41" height="20"/><rect x="519.61" y="480.45" width="89.98" height="20"/><rect x="625.48" y="480.45" width="49.41" height="20"/><rect x="454.31" y="516.34" width="220.58" height="20"/><polygon points="674.88 552.24 609.59 552.24 607.6 552.24 519.61 552.24 519.61 572.24 674.88 572.24 674.88 552.24"/><rect x="454.31" y="552.23" width="49.41" height="20"/><rect x="454.31" y="588.14" width="155.28" height="20"/><rect x="625.47" y="588.14" width="49.41" height="20"/><polygon points="674.88 624.02 652.41 624.02 621.93 624.02 454.31 624.02 454.31 644.02 607.6 644.02 666.75 644.02 674.88 644.02 674.88 624.02"/><rect x="454.31" y="659.91" width="49.41" height="20"/><rect x="625.48" y="695.8" width="49.41" height="20"/><polygon points="519.61 715.8 609.59 715.8 609.59 695.8 519.61 695.8 503.71 695.8 454.31 695.8 454.31 715.8 503.71 715.8 519.61 715.8"/><polygon points="674.88 659.91 625.48 659.91 609.59 659.91 519.61 659.91 519.61 679.91 609.59 679.91 625.48 679.91 674.88 679.91 674.88 659.91"/><path class="cls-1" d="M420.09,443.9a62.23,62.23,0,1,0-13-1.38A62.35,62.35,0,0,0,420.09,443.9Zm-42.2-62.18a42.19,42.19,0,1,1,29.2,40.13A42.25,42.25,0,0,1,377.89,381.72Z"/><path class="cls-2" d="M419.59,400.06c7.51-7.29,14.79-14.81,22.23-22.17,4.24-4.19,5.45-8.69,1.27-13.49-3.52-4-8.58-3.68-13.42,1.1-5.45,5.38-10.58,11.08-16.4,17.22-3.24-3.1-5.35-5.23-7.58-7.22-4.07-3.64-8.53-4-12.46-.19s-3.35,8.52.22,12.45c3.91,4.3,8.06,8.39,12.28,12.38C410.91,405,414.48,405,419.59,400.06Z"/></svg>