<svg id="Layer_1" data-name="Layer 1" xmlns="http://www.w3.org/2000/svg" xmlns:xlink="http://www.w3.org/1999/xlink" viewBox="0 0 1080 1080"><defs><style>.cls-1{fill:url(#linear-gradient);}.cls-2{fill:url(#linear-gradient-2);}.cls-3{fill:url(#linear-gradient-3);}.cls-4{fill:url(#linear-gradient-4);}</style><linearGradient id="linear-gradient" x1="438.08" y1="425.76" x2="549.63" y2="425.76" gradientUnits="userSpaceOnUse"><stop offset="0" stop-color="#fff"/><stop offset="1" stop-color="#db5c4d"/></linearGradient><linearGradient id="linear-gradient-2" x1="419.96" y1="472.3" x2="567.75" y2="472.3" xlink:href="#linear-gradient"/><linearGradient id="linear-gradient-3" x1="419.96" y1="518.83" x2="567.75" y2="518.83" xlink:href="#linear-gradient"/><linearGradient id="linear-gradient-4" x1="438.08" y1="565.37" x2="549.63" y2="565.37" xlink:href="#linear-gradient"/></defs><path d="M611.41,595.74A152.71,152.71,0,0,0,648,496.4c0-84.55-68.79-153.34-153.34-153.34S341.35,411.85,341.35,496.4s68.79,153.34,153.34,153.34a152.76,152.76,0,0,0,103-39.82L721.8,734.05a9.87,9.87,0,0,0,14-14ZM494.69,630c-73.66,0-133.6-59.93-133.6-133.6S421,362.8,494.69,362.8s133.6,59.93,133.6,133.6S568.36,630,494.69,630Z"/><path class="cls-1" d="M448,435.63h91.81a9.87,9.87,0,0,0,0-19.74H448a9.87,9.87,0,0,0,0,19.74Z"/><rect class="cls-2" x="419.96" y="462.42" width="147.78" height="19.74" rx="9.87"/><rect class="cls-3" x="419.96" y="508.96" width="147.78" height="19.74" rx="9.87"/><path class="cls-4" d="M539.76,555.49H448a9.88,9.88,0,0,0,0,19.75h91.81a9.88,9.88,0,0,0,0-19.75Z"/></svg>