<svg id="Layer_1" data-name="Layer 1" xmlns="http://www.w3.org/2000/svg" viewBox="0 0 500 500"><defs><style>.cls-1{fill:#fff;}</style></defs><path class="cls-1" d="M448.79,99.37C436.18,69.47,414,51.71,381.94,46.42a75.79,75.79,0,0,0-12.3-.73H254.39c-1.45,0-2.91.08-4.37.13q-31.12-.07-62.25-.13c-19,0-38-.06-57.06,0-37.22.12-67.86,21.76-80.44,56.78-.21.59-.41,1.18-.61,1.76s-.35,1.08-.51,1.62-.34,1.13-.5,1.7c-.24.85-.46,1.71-.66,2.57q-.16.65-.3,1.29c-.1.43-.19.86-.28,1.29-.23,1.12-.44,2.24-.61,3.37a85.75,85.75,0,0,0-1,10.64c0,1.18-.06,2.36-.06,3.55q0,33.24,0,66.49,0,86.48,0,172.94c.06,40.51,27,73.94,66.3,82.83,2.38.54,5,.15,7.1,1.81h261c6.54-1.9,13.37-2.61,19.74-5.24,30.37-12.5,48.46-34.74,53.7-67.27.11-.66.16-1.31.79-1.72V120.71C452.67,113.55,451.68,106.23,448.79,99.37Zm-280.2,264.8c-5.61,7-16.78,8.19-24.72,3.39a19.84,19.84,0,0,1-8.25-23.9c3.61-9.47,4.15-9.85,14.15-9.85h37.28C180.51,344.28,175.89,355.08,168.59,364.17ZM250,318c-14.48,0-29-.11-43.45-.12-23.13,0-46.26-.4-69.37.13-14.82.34-23.25-9.73-23.21-20.19,0-10.14,8.2-20.69,23.4-20,10.74.52,21.53,0,32.29.16,2.38,0,3.81-.54,5.06-2.72q25.26-44.05,50.75-88a4.59,4.59,0,0,0-.08-5.37c-4.52-7.66-9.21-15.24-13.24-23.16-7.06-13.86,2.72-29.64,17.91-29.21a19.78,19.78,0,0,1,15.68,8.19c1.51,1.94,2,4.6,4.28,6a3.17,3.17,0,0,0-.12.44c1.46-2.2,2.8-4.49,4.38-6.6a19.9,19.9,0,0,1,26.26-5.37c8.78,5.16,12.68,16.34,7.82,25.49-7.69,14.49-16.12,28.59-24.32,42.81-4.61,8-9.38,15.94-14.08,23.91a6.49,6.49,0,0,0-.05.77q-15,25.8-30,51.61c-.15.25,0,.69.07,1h30l-.06.25c12.3-.62,12.3-.62,18.3,9.77,5,8.71,10.07,17.4,15.06,26.13.62,1.1,1.65,2.07,1.54,3.76H250Zm128-4.19a20.16,20.16,0,0,1-12.66,4.06c-4.88,0-9.75,0-15.43,0,4.12,7.15,7.87,13.65,11.61,20.16a29.54,29.54,0,0,1,3.52,8c2.12,9.06-2.26,18.5-10.46,22.32-9,4.2-19,1.92-24.66-5.71a48.49,48.49,0,0,1-3-4.69q-32.81-56.76-65.64-113.48c-1.71-3-1.63-5,.09-7.89,6.36-10.58,12.43-21.35,18.63-32,.65-1.12,1-2.47,2.45-3.27,1.1,1.83,2.21,3.62,3.27,5.45q19.62,34,39.18,68c1.34,2.34,2.73,3.34,5.53,3.3,12-.17,23.94-.2,35.9,0a19.9,19.9,0,0,1,11.67,35.78Z"/></svg>