<svg id="Layer_1" data-name="Layer 1" xmlns="http://www.w3.org/2000/svg" xmlns:xlink="http://www.w3.org/1999/xlink" viewBox="0 0 594.1 146.4"><defs><style>.cls-1{fill:url(#linear-gradient);}.cls-2{fill:url(#linear-gradient-2);}.cls-3{fill:url(#linear-gradient-3);}.cls-4{fill:url(#linear-gradient-4);}</style><linearGradient id="linear-gradient" x1="271" y1="189.34" x2="271" y2="46.01" gradientTransform="matrix(1, 0, 0, -1, 0, 228)" gradientUnits="userSpaceOnUse"><stop offset="0" stop-color="#fff"/><stop offset="1" stop-color="#db5c4d"/></linearGradient><linearGradient id="linear-gradient-2" x1="415.5" y1="189.34" x2="415.5" y2="46.01" xlink:href="#linear-gradient"/><linearGradient id="linear-gradient-3" x1="490.88" y1="189.34" x2="490.88" y2="46.01" xlink:href="#linear-gradient"/><linearGradient id="linear-gradient-4" x1="194.3" y1="189.34" x2="194.3" y2="46.01" xlink:href="#linear-gradient"/></defs><path class="cls-1" d="M270.9,115.8A10.62,10.62,0,0,0,263,119l-6.1-6.5c3.3-3.2,7-5.7,15.1-5.7,8.9,0,15.7,4.8,15.7,15.6V142h-11l.2-4.8c-2.6,4-5.6,5.5-10.3,5.5-6.4,0-12.3-2.8-12.3-10.8,0-7.4,5.6-10.3,14.2-10.3h8.1C276.5,117.6,274.6,115.8,270.9,115.8ZM269.2,128c-2.8,0-4,1.2-4,3.2s1.6,3.1,4.7,3.1c4.5,0,6.8-1.9,6.8-4.8V128Z" transform="translate(-33 -40)"/><path d="M295.9,127.5V107.6H307v19.2c0,3.9,1.9,6.1,5.8,6.1,4.4,0,6.9-2.5,6.9-6.9V107.6h11V142h-11l.2-5.7a11.83,11.83,0,0,1-11,6.4C301.3,142.7,295.9,137.2,295.9,127.5Z" transform="translate(-33 -40)"/><path d="M339.3,107.6h11.1l-.2,6.2c2.5-5.7,6.6-6.9,10.2-6.9a10.48,10.48,0,0,1,5.4,1.4l-3.5,9.9a10.53,10.53,0,0,0-4.3-1.1c-5,0-7.7,2.3-7.7,9.6V142H339.2V107.6Z" transform="translate(-33 -40)"/><path d="M384.5,115.8a10.62,10.62,0,0,0-7.9,3.2l-6.1-6.5c3.3-3.2,7-5.7,15.1-5.7,8.9,0,15.7,4.8,15.7,15.6V142h-11l.2-4.8c-2.6,4-5.6,5.5-10.3,5.5-6.4,0-12.3-2.8-12.3-10.8,0-7.4,5.6-10.3,14.2-10.3h8.1C390.2,117.6,388.2,115.8,384.5,115.8ZM382.8,128c-2.8,0-4,1.2-4,3.2s1.6,3.1,4.7,3.1c4.5,0,6.8-1.9,6.8-4.8V128Z" transform="translate(-33 -40)"/><path class="cls-2" d="M410,83.6h11V142H410Z" transform="translate(-33 -40)"/><path d="M429.9,107.6H441l-.2,5.7c2.1-4.1,6.2-6.4,11.1-6.4,7.6,0,13.1,5.5,13.1,15.3V142H453.9V122.8c0-3.9-1.9-6.1-5.8-6.1-4.4,0-7,2.4-7,6.8V142H430V107.6Z" transform="translate(-33 -40)"/><path class="cls-3" d="M492.3,133.7a15.79,15.79,0,0,0,8.8-2.7l6.3,6.7c-3.4,2.9-7.6,5.1-14.9,5.1-12.4,0-20.5-7.4-20.5-18,0-10.4,8.4-17.9,19.2-17.9,12.5,0,19.3,9.2,18.5,21.3H483.3C484.4,131.7,487.3,133.7,492.3,133.7Zm6.3-11.9c-.5-3.8-2.9-6.1-7.3-6.1s-7.3,1.9-8.2,6.1Z" transform="translate(-33 -40)"/><path d="M524.8,124l-11.7-16.4h13l2.9,4.3a44.46,44.46,0,0,1,2.6,5.3,33.43,33.43,0,0,1,2.5-5.3l2.8-4.3h11.8l-11.5,15.5L550.6,142H537.5l-4-5.9a47.42,47.42,0,0,1-3.2-6.1,41.44,41.44,0,0,1-3.2,6.1l-3.9,5.9H511.4Z" transform="translate(-33 -40)"/><path d="M556,127.5V107.6h11.1v19.2c0,3.9,1.9,6.1,5.8,6.1,4.4,0,6.9-2.5,6.9-6.9V107.6h11.1V142H579.8l.2-5.7a11.83,11.83,0,0,1-11,6.4C561.4,142.7,556,137.2,556,127.5Z" transform="translate(-33 -40)"/><path d="M596.9,136.2l6.5-5.7a12.43,12.43,0,0,0,8.7,3.6c3.6,0,4.7-.6,4.7-2.1,0-1.9-2.2-1.9-7.9-3.3-4.7-1.2-10.1-3.8-10.1-11,0-7.8,6.1-10.9,13.5-10.9,5.7,0,9.8,1.9,12.7,4.8l-5.9,6.2a10.62,10.62,0,0,0-6.7-2.6c-2.5,0-3.8.6-3.8,2,0,1.9,2.2,2.2,7,3.2,5.1,1.1,11.5,3.5,11.5,10.7,0,6.3-3.4,11.5-14.3,11.5C604.7,142.7,600,139.7,596.9,136.2Z" transform="translate(-33 -40)"/><path d="M187.3,106c-7.7,2.6-13.2,9.3-13.2,17.1V153c0,18.4-15.8,33.4-35.3,33.4-18.7,0-33.8-14.3-33.8-31.9V73.3c0-10.4-9.3-18.8-20.8-18.8h-.5c-11.1,0-20.2,8.2-20.2,18.3V153c0,13.3-8.3,25.3-21.3,30.6a43.3,43.3,0,0,1-9.2,2.5l.7-14.8a21.28,21.28,0,0,0,9.6-4.8,19,19,0,0,0,5.6-8.6V72.8C48.9,54.7,64.5,40,83.6,40h.9c19.2.2,34.8,15.2,34.8,33.3v81.1c0,9.6,8.7,17.4,19.3,17.4,11.5,0,20.8-8.4,20.8-18.8V123.1c0-15.1,10.9-27.9,25.7-31.7a10.83,10.83,0,0,0-1.9,6.2A11.36,11.36,0,0,0,187.3,106Z" transform="translate(-33 -40)"/><path d="M254.4,171.8v14.6h-4c-19.5,0-35.3-15-35.3-33.4V123.7c0-8.1-5.8-15.1-13.8-17.7a10.85,10.85,0,0,0,3.9-8.4,11.07,11.07,0,0,0-1.9-6.2c15.1,3.8,26.3,16.8,26.3,32.3V153c0,10.4,9.3,18.8,20.8,18.8Z" transform="translate(-33 -40)"/><path class="cls-4" d="M194.3,90.3a7.3,7.3,0,1,0,7.3,7.3A7.34,7.34,0,0,0,194.3,90.3Z" transform="translate(-33 -40)"/></svg>